<?xml version="1.0" standalone="no"?>
<!DOCTYPE svg PUBLIC "-//W3C//DTD SVG 20010904//EN"
 "http://www.w3.org/TR/2001/REC-SVG-20010904/DTD/svg10.dtd">
<svg version="1.0" xmlns="http://www.w3.org/2000/svg"
 width="601.000000pt" height="601.000000pt" viewBox="0 0 601.000000 601.000000"
 preserveAspectRatio="xMidYMid meet">

<g transform="translate(0.000000,601.000000) scale(0.100000,-0.100000)"
fill="#ffffff" stroke="none">
<path d="M3002 4530 c5 -1186 4 -1481 -7 -1490 -8 -7 -472 -9 -1504 -8 l-1491
3 0 -22 0 -23 1493 0 c1491 0 1492 0 1505 -20 10 -17 12 -136 7 -578 -3 -306
-7 -970 -9 -1475 l-4 -917 24 0 24 0 0 1490 0 1490 1485 0 1485 0 0 23 0 22
-1459 -3 c-803 -2 -1471 0 -1485 4 l-26 6 0 1489 0 1489 -22 0 -21 0 5 -1480z"/>
</g>
</svg>
