<?xml version="1.0" standalone="no"?>
<!DOCTYPE svg PUBLIC "-//W3C//DTD SVG 20010904//EN"
 "http://www.w3.org/TR/2001/REC-SVG-20010904/DTD/svg10.dtd">
<svg version="1.0" xmlns="http://www.w3.org/2000/svg"
 width="425.000000pt" height="307.000000pt" viewBox="0 0 425.000000 307.000000"
 preserveAspectRatio="xMidYMid meet">

<g transform="translate(0.000000,307.000000) scale(0.100000,-0.100000)"
fill="#ffffff" stroke="none">
<path d="M2098 2430 c-4 -14 -9 -99 -12 -190 -5 -155 -14 -228 -49 -376 -36
-154 -110 -217 -298 -255 -115 -23 -362 -48 -494 -51 -66 -1 -45 -3 75 -9 246
-10 478 -47 558 -88 58 -30 129 -114 147 -174 34 -114 56 -275 63 -452 4 -125
8 -168 13 -140 4 22 8 72 8 110 2 160 47 445 83 522 25 52 77 107 129 133 78
40 308 76 565 89 143 7 149 8 58 9 -229 4 -532 50 -622 96 -51 26 -101 75
-127 126 -35 68 -73 307 -84 525 -4 83 -10 139 -13 125z"/>
</g>
</svg>
