<?xml version="1.0" encoding="UTF-8"?>
<svg xmlns="http://www.w3.org/2000/svg" xmlns:xlink="http://www.w3.org/1999/xlink" viewBox="0 0 324 63.77" version="1.1">
<defs>
<clipPath id="clip1">
  <path d="M 0 0 L 76 0 L 76 63.769531 L 0 63.769531 Z M 0 0 "/>
</clipPath>
</defs>
<g id="surface1">
<g clip-path="url(#clip1)" clip-rule="nonzero">
<path style=" stroke:none;fill-rule:nonzero;fill:rgb(25.099182%,39.99939%,68.998718%);fill-opacity:1;" d="M 37.558594 35.882813 L 56.335938 23.921875 L 37.558594 11.960938 L 56.335938 0 L 75.117188 11.960938 L 56.335938 23.921875 L 75.117188 35.882813 L 56.335938 47.839844 Z M 18.722656 51.808594 L 37.503906 39.847656 L 56.28125 51.808594 L 37.503906 63.769531 Z M 37.558594 11.960938 L 18.78125 23.921875 L 37.558594 35.882813 L 18.78125 47.839844 L 0 35.882813 L 18.78125 23.921875 L 0 11.960938 L 18.78125 0 L 37.558594 11.960938 "/>
</g>
<path style=" stroke:none;fill-rule:nonzero;fill:rgb(0.799561%,0.799561%,0.799561%);fill-opacity:1;" d="M 302.257813 35.097656 L 290.96875 19.5625 L 300.636719 19.5625 L 307.179688 29.230469 L 313.773438 19.5625 L 323.386719 19.5625 L 311.929688 35.042969 L 324 51.808594 L 314.5 51.808594 L 307.066406 41.132813 L 299.855469 51.808594 L 290.019531 51.808594 Z M 282.808594 36.273438 L 282.808594 35.488281 C 282.808594 29.453125 279.789063 25.933594 275.039063 25.933594 C 270.34375 25.933594 267.214844 29.230469 267.214844 35.488281 L 267.214844 36.273438 C 267.214844 42.085938 270.179688 45.328125 274.984375 45.328125 C 279.847656 45.328125 282.808594 42.140625 282.808594 36.273438 Z M 258.71875 36.382813 L 258.71875 35.488281 C 258.71875 24.648438 265.59375 18.835938 274.984375 18.835938 C 284.597656 18.835938 291.304688 24.757813 291.304688 35.488281 L 291.304688 36.382813 C 291.304688 47.003906 284.710938 52.648438 274.984375 52.648438 C 264.589844 52.648438 258.71875 47.003906 258.71875 36.382813 Z M 246.535156 35.882813 L 246.535156 35.097656 C 246.535156 29.175781 243.292969 25.933594 238.824219 25.933594 C 234.183594 25.933594 230.996094 29.675781 230.996094 35.210938 L 230.996094 35.882813 C 230.996094 41.917969 234.070313 45.382813 238.710938 45.382813 C 243.574219 45.382813 246.535156 42.253906 246.535156 35.882813 Z M 230.886719 45.941406 L 230.214844 51.808594 L 222.949219 51.808594 L 222.949219 8.773438 L 231.164063 8.773438 L 231.164063 25.316406 C 232.953125 21.125 236.53125 18.835938 241.617188 18.835938 C 249.273438 18.890625 254.976563 24.199219 254.976563 34.929688 L 254.976563 35.882813 C 254.976563 46.613281 249.609375 52.648438 241.394531 52.648438 C 236.085938 52.648438 232.617188 50.078125 230.886719 45.941406 Z M 210.039063 36.328125 L 210.039063 35.601563 C 210.039063 29.175781 206.742188 25.988281 202.328125 25.988281 C 197.632813 25.988281 194.503906 29.566406 194.503906 35.546875 L 194.503906 36.160156 C 194.503906 41.859375 197.519531 45.4375 202.160156 45.4375 C 206.964844 45.4375 210.039063 42.253906 210.039063 36.328125 Z M 186.453125 19.5625 L 193.496094 19.5625 L 194.335938 25.707031 C 196.066406 21.574219 199.644531 18.835938 204.953125 18.835938 C 213.167969 18.835938 218.535156 24.757813 218.535156 35.601563 L 218.535156 36.496094 C 218.535156 47.113281 212.554688 52.648438 204.953125 52.648438 C 199.8125 52.648438 196.402344 50.355469 194.671875 46.613281 L 194.671875 62.875 L 186.453125 62.875 Z M 173.542969 36.273438 L 173.542969 35.488281 C 173.542969 29.453125 170.523438 25.933594 165.773438 25.933594 C 161.078125 25.933594 157.949219 29.230469 157.949219 35.488281 L 157.949219 36.273438 C 157.949219 42.085938 160.910156 45.328125 165.71875 45.328125 C 170.523438 45.328125 173.542969 42.140625 173.542969 36.273438 Z M 149.453125 36.382813 L 149.453125 35.488281 C 149.453125 24.648438 156.386719 18.835938 165.773438 18.835938 C 175.386719 18.835938 182.039063 24.757813 182.039063 35.488281 L 182.039063 36.382813 C 182.039063 47.003906 175.5 52.648438 165.773438 52.648438 C 155.378906 52.648438 149.453125 47.003906 149.453125 36.382813 Z M 127.210938 19.5625 L 133.972656 19.5625 L 135.035156 27.050781 C 136.320313 21.910156 139.617188 19.28125 145.597656 19.28125 L 147.664063 19.28125 L 147.664063 27.832031 L 144.199219 27.832031 C 137.269531 27.832031 135.59375 30.234375 135.59375 37.054688 L 135.59375 51.808594 L 127.210938 51.808594 Z M 98.316406 19.167969 L 98.316406 44.488281 L 104.855469 44.488281 C 110.332031 44.488281 114.074219 40.855469 114.074219 32.863281 L 114.074219 30.792969 C 114.074219 22.800781 110.21875 19.167969 104.574219 19.167969 Z M 89.820313 11.960938 L 105.019531 11.960938 C 114.746094 11.960938 122.683594 17.605469 122.683594 30.402344 L 122.683594 33.140625 C 122.683594 45.996094 115.195313 51.808594 105.246094 51.808594 L 89.820313 51.808594 L 89.820313 11.960938 "/>
</g>
</svg>
